<svg enable-background="new 0 0 256 256" height="512" viewBox="0 0 256 256" width="512" xmlns="http://www.w3.org/2000/svg"><path d="m236.689 69.435c-8.575 0-15.527-6.952-15.527-15.527 0 8.575-6.952 15.527-15.527 15.527-8.575 0-15.527-6.952-15.527-15.527 0 8.575-6.952 15.527-15.527 15.527-8.575 0-15.527-6.952-15.527-15.527 0 8.575-6.952 15.527-15.527 15.527s-15.527-6.952-15.527-15.527c0 8.575-6.952 15.527-15.527 15.527s-15.527-6.952-15.527-15.527c0 8.575-6.952 15.527-15.527 15.527-8.575 0-15.527-6.952-15.527-15.527 0 8.575-6.952 15.527-15.527 15.527-8.575 0-15.527-6.952-15.527-15.527 0 8.575-6.952 15.527-15.527 15.527-2.826 0-5.468-.767-7.751-2.086v134.044c0 6.436 5.236 11.672 11.672 11.672h208.494c6.436 0 11.672-5.236 11.672-11.672v-133.499c-2.033.978-4.302 1.541-6.709 1.541z" fill="#2a4a97"/><path d="m101.686 213.065h51.586v30.051h-51.586z" fill="#94bdea"/><path d="m221.162 53.908c0 8.575-6.952 15.527-15.527 15.527-8.575 0-15.527-6.952-15.527-15.527 0 8.575-6.952 15.527-15.527 15.527-8.575 0-15.527-6.952-15.527-15.527 0 8.575-6.952 15.527-15.527 15.527s-15.527-6.952-15.527-15.527c0 8.575-6.952 15.527-15.527 15.527s-15.527-6.952-15.527-15.527c0 8.575-6.952 15.527-15.527 15.527-8.575 0-15.527-6.952-15.527-15.527 0 8.575-6.952 15.527-15.527 15.527-8.575 0-15.527-6.952-15.527-15.527 0 7.597-5.459 13.909-12.667 15.253v113.57h210.616v-113.81c-6.683-1.733-11.625-7.788-11.625-15.013z" fill="#edf4fc"/><path d="m11.56 182.731v18.662c0 6.436 5.236 11.672 11.672 11.672h208.494c6.436 0 11.672-5.236 11.672-11.672v-18.662z" fill="#c5e3ff"/><path d="m165.729 243.116h-76.5c-2.867 0-5.191 2.324-5.191 5.191 0 2.867 2.324 5.191 5.191 5.191h76.5c2.867 0 5.191-2.324 5.191-5.191.001-2.867-2.324-5.191-5.191-5.191z" fill="#c5e3ff"/><path d="m231.726 215.565h-208.494c-7.814 0-14.172-6.357-14.172-14.172v-134.044c0-.894.477-1.719 1.251-2.166.771-.446 1.727-.446 2.5.001 1.981 1.146 4.229 1.751 6.499 1.751 7.184 0 13.027-5.844 13.027-13.027 0-1.381 1.119-2.5 2.5-2.5s2.5 1.119 2.5 2.5c0 7.183 5.844 13.027 13.027 13.027s13.026-5.844 13.026-13.027c0-1.381 1.119-2.5 2.5-2.5s2.5 1.119 2.5 2.5c0 7.183 5.844 13.027 13.027 13.027s13.027-5.844 13.027-13.027c0-1.381 1.119-2.5 2.5-2.5s2.5 1.119 2.5 2.5c0 7.183 5.844 13.027 13.026 13.027 7.184 0 13.027-5.844 13.027-13.027 0-1.381 1.119-2.5 2.5-2.5s2.5 1.119 2.5 2.5c0 7.183 5.844 13.027 13.027 13.027s13.026-5.844 13.026-13.027c0-1.381 1.119-2.5 2.5-2.5s2.5 1.119 2.5 2.5c0 7.183 5.844 13.027 13.027 13.027s13.027-5.844 13.027-13.027c0-1.381 1.119-2.5 2.5-2.5s2.5 1.119 2.5 2.5c0 7.183 5.844 13.027 13.026 13.027 7.184 0 13.027-5.844 13.027-13.027 0-1.381 1.119-2.5 2.5-2.5s2.5 1.119 2.5 2.5c0 7.183 5.844 13.027 13.027 13.027 1.946 0 3.84-.435 5.626-1.294.776-.372 1.687-.32 2.414.137.728.458 1.169 1.257 1.169 2.116v133.499c.005 7.815-6.352 14.172-14.167 14.172zm-217.665-144.419v130.247c0 5.058 4.114 9.172 9.172 9.172h208.493c5.058 0 9.173-4.114 9.173-9.172v-129.96c-1.373.334-2.779.502-4.209.502-6.603 0-12.387-3.567-15.527-8.875-3.141 5.308-8.925 8.875-15.527 8.875s-12.386-3.567-15.526-8.875c-3.141 5.308-8.925 8.875-15.527 8.875s-12.387-3.567-15.527-8.875c-3.141 5.308-8.925 8.875-15.526 8.875-6.603 0-12.387-3.567-15.527-8.875-3.141 5.308-8.925 8.875-15.527 8.875s-12.386-3.567-15.526-8.875c-3.141 5.308-8.925 8.875-15.527 8.875s-12.387-3.567-15.527-8.875c-3.141 5.308-8.925 8.875-15.526 8.875-6.603 0-12.387-3.567-15.527-8.875-3.141 5.308-8.925 8.875-15.527 8.875-1.787 0-3.557-.268-5.255-.789z"/><g fill="#45bdf0"><path d="m70.828 80.305h-29.195c-1.217 0-2.203.986-2.203 2.203v34.55c0 1.217.986 2.203 2.203 2.203h29.196c1.217 0 2.203-.986 2.203-2.203v-34.55c0-1.217-.987-2.203-2.204-2.203z"/><path d="m118.39 80.305h-29.195c-1.217 0-2.203.986-2.203 2.203v34.55c0 1.217.986 2.203 2.203 2.203h29.196c1.217 0 2.203-.986 2.203-2.203v-34.55c0-1.217-.987-2.203-2.204-2.203z"/><path d="m165.864 80.305h-29.195c-1.217 0-2.203.986-2.203 2.203v34.55c0 1.217.986 2.203 2.203 2.203h29.195c1.217 0 2.203-.986 2.203-2.203v-34.55c.001-1.217-.986-2.203-2.203-2.203z"/><path d="m214.367 80.305h-29.196c-1.217 0-2.203.986-2.203 2.203v34.55c0 1.217.986 2.203 2.203 2.203h29.196c1.217 0 2.203-.986 2.203-2.203v-34.55c.001-1.217-.986-2.203-2.203-2.203z"/><path d="m70.828 131.305h-29.195c-1.217 0-2.203.986-2.203 2.203v34.55c0 1.217.986 2.203 2.203 2.203h29.196c1.217 0 2.203-.986 2.203-2.203v-34.55c0-1.217-.987-2.203-2.204-2.203z"/><path d="m118.39 131.305h-29.195c-1.217 0-2.203.986-2.203 2.203v34.55c0 1.217.986 2.203 2.203 2.203h29.196c1.217 0 2.203-.986 2.203-2.203v-34.55c0-1.217-.987-2.203-2.204-2.203z"/><path d="m165.864 131.305h-29.195c-1.217 0-2.203.986-2.203 2.203v34.55c0 1.217.986 2.203 2.203 2.203h29.195c1.217 0 2.203-.986 2.203-2.203v-34.55c.001-1.217-.986-2.203-2.203-2.203z"/><path d="m214.367 131.305h-29.196c-1.217 0-2.203.986-2.203 2.203v34.55c0 1.217.986 2.203 2.203 2.203h29.196c1.217 0 2.203-.986 2.203-2.203v-34.55c.001-1.217-.986-2.203-2.203-2.203z"/></g><path d="m39.429 109.261v7.797c0 1.217.986 2.203 2.203 2.203h29.196c1.217 0 2.203-.987 2.203-2.203v-7.797z" fill="#a0d85d"/><path d="m86.992 109.261v7.797c0 1.217.986 2.203 2.203 2.203h29.196c1.217 0 2.203-.987 2.203-2.203v-7.797z" fill="#a0d85d"/><path d="m134.465 109.261v7.797c0 1.217.987 2.203 2.203 2.203h29.195c1.217 0 2.204-.987 2.204-2.203v-7.797z" fill="#a0d85d"/><path d="m182.968 109.261v7.797c0 1.217.986 2.203 2.203 2.203h29.195c1.217 0 2.203-.987 2.203-2.203v-7.797z" fill="#a0d85d"/><path d="m182.968 160.261v7.797c0 1.217.986 2.203 2.203 2.203h29.195c1.217 0 2.203-.987 2.203-2.203v-7.797z" fill="#a0d85d"/><path d="m134.465 160.261v7.797c0 1.217.987 2.203 2.203 2.203h29.195c1.217 0 2.204-.987 2.204-2.203v-7.797z" fill="#a0d85d"/><path d="m86.992 160.261v7.797c0 1.217.986 2.203 2.203 2.203h29.196c1.217 0 2.203-.987 2.203-2.203v-7.797z" fill="#a0d85d"/><path d="m39.429 160.261v7.797c0 1.217.986 2.203 2.203 2.203h29.196c1.217 0 2.203-.987 2.203-2.203v-7.797z" fill="#a0d85d"/><path d="m19.311 69.435c-8.575 0-15.527-6.952-15.527-15.527v-16.693h31.054v16.693c0 8.576-6.952 15.527-15.527 15.527z" fill="#facb35"/><path d="m50.365 69.435c-8.575 0-15.527-6.952-15.527-15.527v-16.693h31.054v16.693c0 8.576-6.952 15.527-15.527 15.527z" fill="#f9677f"/><path d="m81.419 69.435c-8.575 0-15.527-6.952-15.527-15.527v-16.693h31.054v16.693c0 8.576-6.952 15.527-15.527 15.527z" fill="#facb35"/><path d="m112.473 69.435c-8.575 0-15.527-6.952-15.527-15.527v-16.693h31.054v16.693c0 8.576-6.952 15.527-15.527 15.527z" fill="#f9677f"/><path d="m143.527 69.435c-8.575 0-15.527-6.952-15.527-15.527v-16.693h31.054v16.693c0 8.576-6.952 15.527-15.527 15.527z" fill="#facb35"/><path d="m174.581 69.435c-8.575 0-15.527-6.952-15.527-15.527v-16.693h31.054v16.693c0 8.576-6.952 15.527-15.527 15.527z" fill="#f9677f"/><path d="m205.635 69.435c-8.575 0-15.527-6.952-15.527-15.527v-16.693h31.054v16.693c0 8.576-6.952 15.527-15.527 15.527z" fill="#facb35"/><path d="m236.689 69.435c-8.575 0-15.527-6.952-15.527-15.527v-16.693h31.054v16.693c0 8.576-6.952 15.527-15.527 15.527z" fill="#f9677f"/><path d="m21.524 12.884c-.435 0-.851-.07-1.256-.17l-16.484 24.497h31.054l12.277-24.327z" fill="#fcac27"/><path d="m47.115 12.884-12.277 24.327h31.054l8.185-24.327z" fill="#fc3850"/><path d="m74.077 12.884-8.185 24.327h31.054l4.092-24.327z" fill="#fcac27"/><path d="m101.038 12.884-4.092 24.327h31.054v-24.327z" fill="#fc3850"/><path d="m128 12.884v24.327h31.054l-4.092-24.327z" fill="#fcac27"/><path d="m154.962 12.884 4.092 24.327h31.054l-8.185-24.327z" fill="#fc3850"/><path d="m181.923 12.884 8.185 24.327h31.054l-12.277-24.327z" fill="#fcac27"/><path d="m235.55 12.444h-.036c-.638.28-1.339.44-2.08.44h-24.55l12.277 24.327h31.054z" fill="#fc3850"/><path d="m153.272 245.616h-51.586c-1.381 0-2.5-1.119-2.5-2.5v-30.051c0-1.381 1.119-2.5 2.5-2.5h51.586c1.381 0 2.5 1.119 2.5 2.5v30.051c0 1.381-1.119 2.5-2.5 2.5zm-49.085-5h46.586v-25.051h-46.586z"/><path d="m19.311 71.935c-9.939 0-18.026-8.087-18.026-18.027v-16.693c0-1.381 1.119-2.5 2.5-2.5h31.054c1.381 0 2.5 1.119 2.5 2.5v16.693c-.001 9.94-8.088 18.027-18.028 18.027zm-13.027-32.22v14.193c0 7.183 5.844 13.027 13.026 13.027 7.184 0 13.027-5.844 13.027-13.027v-14.193z"/><path d="m50.365 71.935c-9.94 0-18.027-8.087-18.027-18.027v-16.693c0-1.381 1.119-2.5 2.5-2.5h31.054c1.381 0 2.5 1.119 2.5 2.5v16.693c0 9.94-8.087 18.027-18.027 18.027zm-13.027-32.22v14.193c0 7.183 5.844 13.027 13.027 13.027s13.026-5.844 13.026-13.027v-14.193z"/><path d="m81.419 71.935c-9.94 0-18.027-8.087-18.027-18.027v-16.693c0-1.381 1.119-2.5 2.5-2.5h31.055c1.381 0 2.5 1.119 2.5 2.5v16.693c-.001 9.94-8.088 18.027-18.028 18.027zm-13.027-32.22v14.193c0 7.183 5.844 13.027 13.027 13.027s13.027-5.844 13.027-13.027v-14.193z"/><path d="m112.473 71.935c-9.939 0-18.026-8.087-18.026-18.027v-16.693c0-1.381 1.119-2.5 2.5-2.5h31.053c1.381 0 2.5 1.119 2.5 2.5v16.693c0 9.94-8.087 18.027-18.027 18.027zm-13.027-32.22v14.193c0 7.183 5.844 13.027 13.026 13.027 7.184 0 13.027-5.844 13.027-13.027v-14.193z"/><path d="m143.527 71.935c-9.94 0-18.027-8.087-18.027-18.027v-16.693c0-1.381 1.119-2.5 2.5-2.5h31.054c1.381 0 2.5 1.119 2.5 2.5v16.693c0 9.94-8.087 18.027-18.027 18.027zm-13.027-32.22v14.193c0 7.183 5.844 13.027 13.027 13.027s13.026-5.844 13.026-13.027v-14.193z"/><path d="m174.581 71.935c-9.94 0-18.027-8.087-18.027-18.027v-16.693c0-1.381 1.119-2.5 2.5-2.5h31.055c1.381 0 2.5 1.119 2.5 2.5v16.693c-.001 9.94-8.088 18.027-18.028 18.027zm-13.027-32.22v14.193c0 7.183 5.844 13.027 13.027 13.027s13.027-5.844 13.027-13.027v-14.193z"/><path d="m205.635 71.935c-9.939 0-18.026-8.087-18.026-18.027v-16.693c0-1.381 1.119-2.5 2.5-2.5h31.054c1.381 0 2.5 1.119 2.5 2.5v16.693c-.001 9.94-8.088 18.027-18.028 18.027zm-13.027-32.22v14.193c0 7.183 5.844 13.027 13.026 13.027 7.184 0 13.027-5.844 13.027-13.027v-14.193z"/><path d="m236.689 71.935c-9.94 0-18.027-8.087-18.027-18.027v-16.693c0-1.381 1.119-2.5 2.5-2.5h31.054c1.381 0 2.5 1.119 2.5 2.5v16.693c0 9.94-8.087 18.027-18.027 18.027zm-13.027-32.22v14.193c0 7.183 5.844 13.027 13.027 13.027s13.026-5.844 13.026-13.027v-14.193z"/><path d="m34.838 39.711h-31.054c-.924 0-1.772-.51-2.207-1.325-.434-.815-.383-1.804.133-2.57l16.484-24.497c.587-.873 1.659-1.285 2.678-1.031.265.066.472.097.651.097h25.592c.868 0 1.674.45 2.129 1.189.455.74.494 1.662.103 2.437l-12.278 24.326c-.424.843-1.288 1.374-2.231 1.374zm-26.359-5h24.819l9.754-19.327h-21.529c-.013 0-.025 0-.038 0z"/><path d="m65.892 39.711h-31.054c-.868 0-1.674-.45-2.129-1.189-.455-.74-.494-1.662-.103-2.437l12.277-24.327c.425-.842 1.288-1.374 2.231-1.374h26.962c.805 0 1.561.388 2.03 1.041.47.654.596 1.494.339 2.256l-8.186 24.327c-.34 1.018-1.294 1.703-2.367 1.703zm-26.992-5h25.194l6.504-19.327h-21.944z"/><path d="m96.946 39.711h-31.054c-.805 0-1.561-.388-2.03-1.041-.47-.654-.596-1.494-.339-2.256l8.186-24.327c.342-1.018 1.296-1.703 2.369-1.703h26.961c.735 0 1.434.324 1.909.885.475.562.678 1.304.557 2.029l-4.092 24.327c-.204 1.205-1.246 2.086-2.467 2.086zm-27.576-5h25.462l3.25-19.327h-22.208z"/><path d="m128 39.711h-31.054c-.735 0-1.434-.324-1.909-.885-.475-.562-.678-1.304-.557-2.029l4.092-24.327c.203-1.204 1.245-2.085 2.466-2.085h26.962c1.381 0 2.5 1.119 2.5 2.5v24.327c0 1.38-1.119 2.499-2.5 2.499zm-28.098-5h25.598v-19.327h-22.348z"/><path d="m159.054 39.711h-31.054c-1.381 0-2.5-1.119-2.5-2.5v-24.327c0-1.381 1.119-2.5 2.5-2.5h26.962c1.221 0 2.263.881 2.466 2.085l4.092 24.327c.121.725-.082 1.467-.557 2.029-.476.562-1.174.886-1.909.886zm-28.554-5h25.598l-3.25-19.327h-22.348z"/><path d="m190.108 39.711h-31.055c-1.221 0-2.263-.881-2.466-2.085l-4.092-24.327c-.121-.725.082-1.467.557-2.029.476-.562 1.174-.885 1.909-.885h26.962c1.073 0 2.027.686 2.369 1.703l8.185 24.327c.257.763.131 1.603-.339 2.256-.469.652-1.225 1.04-2.03 1.04zm-28.94-5h25.462l-6.503-19.327h-22.209z"/><path d="m221.162 39.711h-31.054c-1.073 0-2.027-.686-2.369-1.703l-8.185-24.327c-.257-.763-.131-1.603.339-2.256s1.226-1.041 2.03-1.041h26.961c.943 0 1.807.531 2.231 1.374l12.277 24.327c.392.775.353 1.697-.103 2.437-.453.739-1.259 1.189-2.127 1.189zm-29.257-5h25.195l-9.754-19.327h-21.943z"/><path d="m252.216 39.711h-31.054c-.943 0-1.807-.531-2.231-1.374l-12.277-24.327c-.392-.775-.353-1.697.103-2.437.455-.739 1.261-1.189 2.129-1.189h24.55c.366 0 .729-.077 1.075-.23 1.08-.473 2.457-.083 3.115.894l16.665 24.767c.516.767.566 1.755.133 2.57-.436.816-1.284 1.326-2.208 1.326zm-29.515-5h24.819l-13.052-19.397c-.342.047-.687.07-1.034.07h-20.487z"/><path d="m232.787 185.23h-210.616c-1.381 0-2.5-1.119-2.5-2.5v-113.569c0-1.204.858-2.237 2.042-2.458 6.156-1.148 10.625-6.529 10.625-12.795 0-1.381 1.119-2.5 2.5-2.5s2.5 1.119 2.5 2.5c0 7.183 5.844 13.027 13.027 13.027s13.026-5.844 13.026-13.027c0-1.381 1.119-2.5 2.5-2.5s2.5 1.119 2.5 2.5c0 7.183 5.844 13.027 13.027 13.027s13.027-5.844 13.027-13.027c0-1.381 1.119-2.5 2.5-2.5s2.5 1.119 2.5 2.5c0 7.183 5.844 13.027 13.026 13.027 7.184 0 13.027-5.844 13.027-13.027 0-1.381 1.119-2.5 2.5-2.5s2.5 1.119 2.5 2.5c0 7.183 5.844 13.027 13.027 13.027s13.026-5.844 13.026-13.027c0-1.381 1.119-2.5 2.5-2.5s2.5 1.119 2.5 2.5c0 7.183 5.844 13.027 13.027 13.027s13.027-5.844 13.027-13.027c0-1.381 1.119-2.5 2.5-2.5s2.5 1.119 2.5 2.5c0 7.183 5.844 13.027 13.026 13.027 7.184 0 13.027-5.844 13.027-13.027 0-1.381 1.119-2.5 2.5-2.5s2.5 1.119 2.5 2.5c0 5.925 4.011 11.104 9.753 12.593 1.103.286 1.872 1.281 1.872 2.42v113.81c.004 1.38-1.115 2.499-2.496 2.499zm-208.116-5h205.616v-109.484c-3.893-1.475-7.079-4.224-9.125-7.687-3.141 5.309-8.925 8.876-15.527 8.876s-12.386-3.567-15.526-8.875c-3.141 5.309-8.925 8.875-15.527 8.875s-12.387-3.567-15.527-8.875c-3.141 5.309-8.925 8.875-15.526 8.875-6.603 0-12.387-3.567-15.527-8.875-3.141 5.308-8.925 8.875-15.527 8.875s-12.386-3.567-15.526-8.875c-3.141 5.309-8.925 8.875-15.527 8.875s-12.387-3.567-15.527-8.875c-3.141 5.309-8.925 8.875-15.526 8.875s-12.385-3.566-15.526-8.874c-2.233 3.782-5.82 6.704-10.168 8.052v109.117z"/><path d="m70.828 121.761h-29.195c-2.594 0-4.703-2.11-4.703-4.703v-34.55c0-2.594 2.109-4.704 4.703-4.704h29.195c2.594 0 4.703 2.11 4.703 4.704v34.55c0 2.593-2.109 4.703-4.703 4.703zm-28.898-5h28.602v-33.956h-28.602zm28.898-33.956h.01z"/><path d="m118.391 121.761h-29.196c-2.594 0-4.704-2.11-4.704-4.703v-34.55c0-2.594 2.11-4.704 4.704-4.704h29.195c2.594 0 4.703 2.11 4.703 4.704v34.55c.001 2.593-2.109 4.703-4.702 4.703zm-28.9-5h28.603v-33.956h-28.603zm28.9-33.956h.01z"/><path d="m165.864 121.761h-29.195c-2.594 0-4.704-2.11-4.704-4.703v-34.55c0-2.594 2.11-4.704 4.704-4.704h29.195c2.594 0 4.703 2.11 4.703 4.704v34.55c0 2.593-2.109 4.703-4.703 4.703zm-28.899-5h28.603v-33.956h-28.603zm28.899-33.956h.01z"/><path d="m214.367 121.761h-29.195c-2.594 0-4.703-2.11-4.703-4.703v-34.55c0-2.594 2.109-4.704 4.703-4.704h29.195c2.594 0 4.703 2.11 4.703 4.704v34.55c0 2.593-2.109 4.703-4.703 4.703zm-28.898-5h28.602v-33.956h-28.602zm28.898-33.956h.01z"/><path d="m70.828 172.761h-29.195c-2.594 0-4.703-2.11-4.703-4.703v-34.55c0-2.594 2.109-4.704 4.703-4.704h29.195c2.594 0 4.703 2.11 4.703 4.704v34.55c0 2.593-2.109 4.703-4.703 4.703zm-28.898-5h28.602v-33.957h-28.602zm28.898-33.956h.01z"/><path d="m118.391 172.761h-29.196c-2.594 0-4.704-2.11-4.704-4.703v-34.55c0-2.594 2.11-4.704 4.704-4.704h29.195c2.594 0 4.703 2.11 4.703 4.704v34.55c.001 2.593-2.109 4.703-4.702 4.703zm-28.9-5h28.603v-33.957h-28.603zm28.9-33.956h.01z"/><path d="m165.864 172.761h-29.195c-2.594 0-4.704-2.11-4.704-4.703v-34.55c0-2.594 2.11-4.704 4.704-4.704h29.195c2.594 0 4.703 2.11 4.703 4.704v34.55c0 2.593-2.109 4.703-4.703 4.703zm-28.899-5h28.603v-33.957h-28.603zm28.899-33.956h.01z"/><path d="m214.367 172.761h-29.195c-2.594 0-4.703-2.11-4.703-4.703v-34.55c0-2.594 2.109-4.704 4.703-4.704h29.195c2.594 0 4.703 2.11 4.703 4.704v34.55c0 2.593-2.109 4.703-4.703 4.703zm-28.898-5h28.602v-33.957h-28.602zm28.898-33.956h.01z"/><path d="m70.828 121.761h-29.195c-2.594 0-4.703-2.11-4.703-4.704v-7.796c0-1.381 1.119-2.5 2.5-2.5h33.602c1.381 0 2.5 1.119 2.5 2.5v7.796c-.001 2.594-2.11 4.704-4.704 4.704zm-28.898-5h28.602v-5h-28.602z"/><path d="m118.391 121.761h-29.196c-2.594 0-4.704-2.11-4.704-4.704v-7.796c0-1.381 1.119-2.5 2.5-2.5h33.603c1.381 0 2.5 1.119 2.5 2.5v7.796c0 2.594-2.11 4.704-4.703 4.704zm-28.9-5h28.603v-5h-28.603z"/><path d="m165.864 121.761h-29.195c-2.594 0-4.704-2.11-4.704-4.704v-7.796c0-1.381 1.119-2.5 2.5-2.5h33.603c1.381 0 2.5 1.119 2.5 2.5v7.796c-.001 2.594-2.11 4.704-4.704 4.704zm-28.899-5h28.603v-5h-28.603z"/><path d="m214.367 121.761h-29.195c-2.594 0-4.703-2.11-4.703-4.704v-7.796c0-1.381 1.119-2.5 2.5-2.5h33.602c1.381 0 2.5 1.119 2.5 2.5v7.796c-.001 2.594-2.11 4.704-4.704 4.704zm-28.898-5h28.602v-5h-28.602z"/><path d="m214.367 172.761h-29.195c-2.594 0-4.703-2.11-4.703-4.704v-7.796c0-1.381 1.119-2.5 2.5-2.5h33.602c1.381 0 2.5 1.119 2.5 2.5v7.796c-.001 2.594-2.11 4.704-4.704 4.704zm-28.898-5h28.602v-5h-28.602z"/><path d="m165.864 172.761h-29.195c-2.594 0-4.704-2.11-4.704-4.704v-7.796c0-1.381 1.119-2.5 2.5-2.5h33.603c1.381 0 2.5 1.119 2.5 2.5v7.796c-.001 2.594-2.11 4.704-4.704 4.704zm-28.899-5h28.603v-5h-28.603z"/><path d="m118.391 172.761h-29.196c-2.594 0-4.704-2.11-4.704-4.704v-7.796c0-1.381 1.119-2.5 2.5-2.5h33.603c1.381 0 2.5 1.119 2.5 2.5v7.796c0 2.594-2.11 4.704-4.703 4.704zm-28.9-5h28.603v-5h-28.603z"/><path d="m70.828 172.761h-29.195c-2.594 0-4.703-2.11-4.703-4.704v-7.796c0-1.381 1.119-2.5 2.5-2.5h33.602c1.381 0 2.5 1.119 2.5 2.5v7.796c-.001 2.594-2.11 4.704-4.704 4.704zm-28.898-5h28.602v-5h-28.602z"/><path d="m231.727 215.565h-208.495c-7.814 0-14.172-6.357-14.172-14.172v-18.663c0-1.381 1.119-2.5 2.5-2.5h231.838c1.381 0 2.5 1.119 2.5 2.5v18.663c0 7.815-6.357 14.172-14.171 14.172zm-217.666-30.335v16.163c0 5.058 4.114 9.172 9.172 9.172h208.494c5.058 0 9.172-4.114 9.172-9.172v-16.163z"/><path d="m165.729 255.998h-76.5c-4.241 0-7.691-3.45-7.691-7.691s3.45-7.691 7.691-7.691h76.5c4.241 0 7.691 3.45 7.691 7.691.001 4.241-3.449 7.691-7.691 7.691zm-76.5-10.382c-1.484 0-2.691 1.208-2.691 2.691s1.207 2.691 2.691 2.691h76.5c1.484 0 2.691-1.207 2.691-2.691s-1.207-2.691-2.691-2.691z"/><circle cx="127.479" cy="197.367" fill="#94bdea" r="5.191"/><path d="m127.479 205.058c-4.241 0-7.691-3.45-7.691-7.691s3.45-7.691 7.691-7.691c4.24 0 7.69 3.45 7.69 7.691s-3.449 7.691-7.69 7.691zm0-10.382c-1.484 0-2.691 1.207-2.691 2.691s1.207 2.691 2.691 2.691c1.483 0 2.69-1.207 2.69-2.691s-1.206-2.691-2.69-2.691z"/><path d="m233.435 2.502h-211.911c-2.867 0-5.191 2.324-5.191 5.191 0 2.867 2.324 5.191 5.191 5.191h211.911c2.867 0 5.191-2.324 5.191-5.191 0-2.867-2.324-5.191-5.191-5.191z" fill="#c5e3ff"/><path d="m233.435 15.384h-211.912c-4.24 0-7.69-3.45-7.69-7.691s3.45-7.691 7.69-7.691h211.911c4.241 0 7.691 3.45 7.691 7.691.001 4.241-3.449 7.691-7.69 7.691zm-211.912-10.382c-1.483 0-2.69 1.207-2.69 2.691s1.207 2.691 2.69 2.691h211.911c1.484 0 2.691-1.208 2.691-2.691s-1.207-2.691-2.691-2.691z"/></svg>